<mxfile host="app.diagrams.net" modified="2021-08-06T15:35:26.112Z" agent="5.0 (Windows)" etag="kNOl14-Xrjglic-RxEJx" version="14.6.6" type="github">
  <diagram id="aNyop9hjlrTQ0mWWM-lA" name="Page-1">
    <mxGraphModel dx="2185" dy="780" grid="1" gridSize="10" guides="1" tooltips="1" connect="1" arrows="1" fold="1" page="1" pageScale="1" pageWidth="850" pageHeight="1100" math="0" shadow="0">
      <root>
        <mxCell id="0" />
        <mxCell id="1" parent="0" />
        <mxCell id="jtkYzB4JRikXSF7hLt3M-2" value="" style="rounded=0;whiteSpace=wrap;html=1;fillColor=#d5e8d4;strokeColor=#82b366;" vertex="1" parent="1">
          <mxGeometry x="-330" y="110" width="220" height="60" as="geometry" />
        </mxCell>
        <mxCell id="jtkYzB4JRikXSF7hLt3M-3" value="&lt;font style=&quot;font-size: 24px&quot;&gt;User&lt;/font&gt;" style="text;html=1;strokeColor=none;fillColor=none;align=center;verticalAlign=middle;whiteSpace=wrap;rounded=0;" vertex="1" parent="1">
          <mxGeometry x="-330" y="110" width="220" height="60" as="geometry" />
        </mxCell>
        <mxCell id="jtkYzB4JRikXSF7hLt3M-4" value="" style="rounded=0;whiteSpace=wrap;html=1;" vertex="1" parent="1">
          <mxGeometry x="-330" y="170" width="220" height="60" as="geometry" />
        </mxCell>
        <mxCell id="jtkYzB4JRikXSF7hLt3M-5" value="Text" style="text;html=1;strokeColor=none;fillColor=none;align=center;verticalAlign=middle;whiteSpace=wrap;rounded=0;" vertex="1" parent="1">
          <mxGeometry x="-410" y="560" width="40" height="20" as="geometry" />
        </mxCell>
        <mxCell id="jtkYzB4JRikXSF7hLt3M-6" value="&lt;font style=&quot;font-size: 24px&quot;&gt;id&lt;/font&gt;" style="text;html=1;strokeColor=none;fillColor=none;align=center;verticalAlign=middle;whiteSpace=wrap;rounded=0;" vertex="1" parent="1">
          <mxGeometry x="-330" y="170" width="220" height="60" as="geometry" />
        </mxCell>
        <mxCell id="jtkYzB4JRikXSF7hLt3M-7" value="" style="rounded=0;whiteSpace=wrap;html=1;" vertex="1" parent="1">
          <mxGeometry x="-330" y="230" width="220" height="60" as="geometry" />
        </mxCell>
        <mxCell id="jtkYzB4JRikXSF7hLt3M-8" value="&lt;div&gt;nama&lt;/div&gt;" style="text;html=1;strokeColor=none;fillColor=none;align=center;verticalAlign=middle;whiteSpace=wrap;rounded=0;fontSize=24;" vertex="1" parent="1">
          <mxGeometry x="-240" y="250" width="40" height="20" as="geometry" />
        </mxCell>
        <mxCell id="jtkYzB4JRikXSF7hLt3M-12" value="" style="rounded=0;whiteSpace=wrap;html=1;fontSize=24;" vertex="1" parent="1">
          <mxGeometry x="-330" y="290" width="220" height="60" as="geometry" />
        </mxCell>
        <mxCell id="jtkYzB4JRikXSF7hLt3M-14" value="email" style="text;html=1;strokeColor=none;fillColor=none;align=center;verticalAlign=middle;whiteSpace=wrap;rounded=0;fontSize=24;" vertex="1" parent="1">
          <mxGeometry x="-240" y="310" width="40" height="20" as="geometry" />
        </mxCell>
        <mxCell id="jtkYzB4JRikXSF7hLt3M-16" value="" style="rounded=0;whiteSpace=wrap;html=1;fontSize=24;" vertex="1" parent="1">
          <mxGeometry x="-330" y="350" width="220" height="60" as="geometry" />
        </mxCell>
        <mxCell id="jtkYzB4JRikXSF7hLt3M-17" value="image" style="text;html=1;strokeColor=none;fillColor=none;align=center;verticalAlign=middle;whiteSpace=wrap;rounded=0;fontSize=24;" vertex="1" parent="1">
          <mxGeometry x="-240" y="370" width="40" height="20" as="geometry" />
        </mxCell>
        <mxCell id="jtkYzB4JRikXSF7hLt3M-18" value="" style="rounded=0;whiteSpace=wrap;html=1;fontSize=24;" vertex="1" parent="1">
          <mxGeometry x="-330" y="410" width="220" height="60" as="geometry" />
        </mxCell>
        <mxCell id="jtkYzB4JRikXSF7hLt3M-19" value="password" style="text;html=1;strokeColor=none;fillColor=none;align=center;verticalAlign=middle;whiteSpace=wrap;rounded=0;fontSize=24;" vertex="1" parent="1">
          <mxGeometry x="-330" y="410" width="220" height="60" as="geometry" />
        </mxCell>
        <mxCell id="jtkYzB4JRikXSF7hLt3M-20" value="" style="rounded=0;whiteSpace=wrap;html=1;fontSize=24;" vertex="1" parent="1">
          <mxGeometry x="-330" y="470" width="220" height="60" as="geometry" />
        </mxCell>
        <mxCell id="jtkYzB4JRikXSF7hLt3M-21" value="role_id" style="text;html=1;strokeColor=none;fillColor=none;align=center;verticalAlign=middle;whiteSpace=wrap;rounded=0;fontSize=24;" vertex="1" parent="1">
          <mxGeometry x="-240" y="490" width="40" height="20" as="geometry" />
        </mxCell>
        <mxCell id="jtkYzB4JRikXSF7hLt3M-22" value="" style="rounded=0;whiteSpace=wrap;html=1;fontSize=24;" vertex="1" parent="1">
          <mxGeometry x="-330" y="530" width="220" height="60" as="geometry" />
        </mxCell>
        <mxCell id="jtkYzB4JRikXSF7hLt3M-24" value="is_active" style="text;html=1;strokeColor=none;fillColor=none;align=center;verticalAlign=middle;whiteSpace=wrap;rounded=0;fontSize=24;" vertex="1" parent="1">
          <mxGeometry x="-240" y="550" width="40" height="20" as="geometry" />
        </mxCell>
        <mxCell id="jtkYzB4JRikXSF7hLt3M-25" value="" style="rounded=0;whiteSpace=wrap;html=1;fontSize=24;" vertex="1" parent="1">
          <mxGeometry x="-330" y="590" width="220" height="60" as="geometry" />
        </mxCell>
        <mxCell id="jtkYzB4JRikXSF7hLt3M-26" value="date_created" style="text;html=1;strokeColor=none;fillColor=none;align=center;verticalAlign=middle;whiteSpace=wrap;rounded=0;fontSize=24;" vertex="1" parent="1">
          <mxGeometry x="-240" y="610" width="40" height="20" as="geometry" />
        </mxCell>
        <mxCell id="jtkYzB4JRikXSF7hLt3M-27" value="" style="rounded=0;whiteSpace=wrap;html=1;fontSize=24;" vertex="1" parent="1">
          <mxGeometry x="305" y="390" width="120" height="60" as="geometry" />
        </mxCell>
      </root>
    </mxGraphModel>
  </diagram>
</mxfile>
